<svg width="14" height="14" viewBox="0 0 14 14" fill="none" xmlns="http://www.w3.org/2000/svg">
<rect width="14" height="14" fill="#E5E5E5"/>
<g clip-path="url(#clip0)">
<rect x="-431" y="-17" width="1440" height="1024" fill="#F5F5F5"/>
<g filter="url(#filter0_d)">
<rect x="-431" y="-17" width="1440" height="48" fill="#0050B3"/>
<rect x="-310.5" y="-8.5" width="335" height="31" rx="3.5" fill="white" stroke="#D9D9D9"/>
<path d="M13.2125 12.3516L9.15469 8.29375C9.78438 7.47969 10.125 6.48438 10.125 5.4375C10.125 4.18438 9.63594 3.00937 8.75156 2.12344C7.86719 1.2375 6.68906 0.75 5.4375 0.75C4.18594 0.75 3.00781 1.23906 2.12344 2.12344C1.2375 3.00781 0.75 4.18438 0.75 5.4375C0.75 6.68906 1.23906 7.86719 2.12344 8.75156C3.00781 9.6375 4.18438 10.125 5.4375 10.125C6.48438 10.125 7.47813 9.78438 8.29219 9.15625L12.35 13.2125C12.3619 13.2244 12.376 13.2338 12.3916 13.2403C12.4071 13.2467 12.4238 13.2501 12.4406 13.2501C12.4575 13.2501 12.4741 13.2467 12.4897 13.2403C12.5052 13.2338 12.5194 13.2244 12.5312 13.2125L13.2125 12.5328C13.2244 12.5209 13.2338 12.5068 13.2403 12.4912C13.2467 12.4757 13.2501 12.459 13.2501 12.4422C13.2501 12.4254 13.2467 12.4087 13.2403 12.3931C13.2338 12.3776 13.2244 12.3635 13.2125 12.3516ZM7.9125 7.9125C7.25 8.57344 6.37187 8.9375 5.4375 8.9375C4.50313 8.9375 3.625 8.57344 2.9625 7.9125C2.30156 7.25 1.9375 6.37187 1.9375 5.4375C1.9375 4.50313 2.30156 3.62344 2.9625 2.9625C3.625 2.30156 4.50313 1.9375 5.4375 1.9375C6.37187 1.9375 7.25156 2.3 7.9125 2.9625C8.57344 3.625 8.9375 4.50313 8.9375 5.4375C8.9375 6.37187 8.57344 7.25156 7.9125 7.9125Z" fill="#8C8C8C"/>
</g>
</g>
<defs>
<filter id="filter0_d" x="-439" y="-23" width="1456" height="64" filterUnits="userSpaceOnUse" color-interpolation-filters="sRGB">
<feFlood flood-opacity="0" result="BackgroundImageFix"/>
<feColorMatrix in="SourceAlpha" type="matrix" values="0 0 0 0 0 0 0 0 0 0 0 0 0 0 0 0 0 0 127 0"/>
<feOffset dy="2"/>
<feGaussianBlur stdDeviation="4"/>
<feColorMatrix type="matrix" values="0 0 0 0 0 0 0 0 0 0 0 0 0 0 0 0 0 0 0.15 0"/>
<feBlend mode="normal" in2="BackgroundImageFix" result="effect1_dropShadow"/>
<feBlend mode="normal" in="SourceGraphic" in2="effect1_dropShadow" result="shape"/>
</filter>
<clipPath id="clip0">
<rect x="-431" y="-17" width="1440" height="1024" fill="white"/>
</clipPath>
</defs>
</svg>
